# xmcd
#
# Track frame offsets:
# 150
# 12911
# 25804
# 38181
# 52081
# 65527
# 78805
# 92441
# 105560
# 117902
# 131844
# 144646
# 156985
# 170133
# 183750
#
# Disc length: 2606 seconds
#
#
# Revision: 0
# Processed by: cddbd v1.5.2PL0 Copyright (c) Steve Scherf et al.
# Submitted via: FreeRIP 2.951 
#
DISCID=c60a2c0f
DTITLE=Blind Lemon Jefferson - Black Snake Moan
DYEAR=2003
DGENRE=Blues
TTITLE0=Bad Luck Blues
TTITLE1=Match Box Blues
TTITLE2=Rambler Blues
TTITLE3=Stocking Feet Blues
TTITLE4=Black Snake Moan
TTITLE5=Broke and Hungry
TTITLE6=Shuckin' Sugar Blues
TTITLE7=Hot Dogs
TTITLE8=One Dime Blues
TTITLE9=Corinna
TTITLE10=See That My Grave is Kept Clean
TTITLE11=Prison Cell Blues
TTITLE12=Christmas Eve Blues
TTITLE13=Peach Orchard Mama
TTITLE14=Mean Jumper Blues
EXTD=
EXTT0=
EXTT1=
EXTT2=
EXTT3=
EXTT4=
EXTT5=
EXTT6=
EXTT7=
EXTT8=
EXTT9=
EXTT10=
EXTT11=
EXTT12=
EXTT13=
EXTT14=
PLAYORDER=
